<?xml version="1.0" standalone="no"?>
<!DOCTYPE svg PUBLIC "-//W3C//DTD SVG 20010904//EN"
 "http://www.w3.org/TR/2001/REC-SVG-20010904/DTD/svg10.dtd">
<svg version="1.0" xmlns="http://www.w3.org/2000/svg"
 width="1600.000000pt" height="1000.000000pt" viewBox="0 0 1600.000000 1000.000000"
 preserveAspectRatio="xMidYMid meet">

<g transform="translate(0.000000,1000.000000) scale(0.100000,-0.100000)"
fill="#000000" stroke="none">
<path d="M10082 7139 c-106 -93 -192 -177 -192 -185 0 -8 -16 -22 -35 -30 -19
-7 -96 -69 -172 -135 -76 -67 -149 -131 -163 -143 -118 -100 -160 -141 -160
-158 0 -10 -8 -21 -17 -24 -45 -13 -93 -49 -245 -184 -90 -80 -191 -171 -225
-204 l-63 -59 0 -383 0 -383 23 -25 c15 -18 84 -48 227 -102 183 -68 243 -96
229 -107 -2 -2 -107 -50 -233 -107 -125 -57 -234 -110 -242 -117 -10 -11 -12
-41 -9 -131 3 -64 7 -216 10 -337 7 -249 11 -265 97 -337 23 -20 59 -50 78
-66 106 -89 193 -160 311 -252 45 -36 105 -88 133 -116 28 -28 107 -98 176
-156 69 -57 175 -146 235 -197 61 -51 121 -98 135 -104 14 -6 48 -32 75 -58
28 -26 106 -93 175 -149 294 -238 360 -292 365 -300 3 -4 -12 -4 -33 1 -191
44 -353 -59 -353 -225 0 -63 11 -94 52 -140 38 -44 73 -63 191 -104 122 -43
166 -68 188 -105 41 -67 16 -156 -52 -187 -79 -36 -164 -22 -242 40 -43 34
-106 132 -106 164 0 11 -9 16 -31 16 l-32 0 7 -61 c3 -34 6 -97 6 -140 l0 -79
30 0 c17 0 30 5 30 13 1 33 16 36 65 12 109 -53 224 -56 322 -9 100 48 151
140 140 251 -11 103 -72 154 -269 228 -71 26 -136 57 -148 70 -50 54 -41 142
20 183 30 20 44 23 100 20 90 -5 139 -39 181 -124 26 -52 36 -64 56 -64 l24 0
-7 133 -6 132 268 135 c147 74 294 152 326 173 32 20 71 37 85 37 30 0 487
233 670 341 45 27 90 49 100 49 9 0 80 32 158 72 374 190 502 261 532 292 37
40 38 43 58 331 26 381 27 418 12 437 -7 9 -76 58 -152 109 -77 51 -187 126
-244 166 -57 41 -105 73 -106 71 -5 -5 -15 -187 -21 -400 -4 -150 -2 -208 6
-208 6 0 90 41 187 90 170 87 209 105 168 76 -28 -19 -260 -142 -317 -168 -55
-25 -56 -28 -58 -168 0 -58 -5 -130 -10 -160 -9 -58 -4 222 9 460 4 69 3 141
-1 160 -4 19 -5 185 -2 368 l6 332 -22 0 c-12 0 -18 -4 -15 -10 3 -5 1 -10 -5
-10 -7 0 -73 -61 -147 -135 -74 -74 -138 -135 -143 -135 -5 0 -12 5 -16 11
-10 17 -5 515 6 582 11 67 14 73 111 174 41 44 104 112 141 153 37 41 90 100
118 130 l50 55 0 -38 c0 -26 -4 -36 -12 -31 -7 5 -8 3 -3 -5 8 -15 7 -121 -4
-396 -5 -104 -5 -194 0 -199 15 -17 57 4 71 34 7 16 20 30 29 30 25 0 44 26
24 34 -14 5 -15 20 -10 103 3 54 10 181 15 282 7 111 16 195 24 215 8 17 81
102 163 190 176 189 173 184 153 196 -10 7 -12 12 -4 18 39 26 44 95 10 117
-30 20 -616 214 -755 250 -46 13 -57 13 -82 0 -38 -20 -44 -19 -57 10 -13 29
-64 53 -185 89 -219 64 -493 148 -548 167 -57 20 -82 21 -121 4 -13 -5 -19 0
-24 20 -6 26 -29 40 -91 59 -20 6 -23 4 -23 -18 0 -30 -33 -65 -293 -305 -58
-53 -59 -54 -110 -48 -43 5 -257 66 -560 160 -62 20 -77 33 -77 67 0 23 23 49
135 151 125 114 140 129 132 129 -2 0 -90 -77 -195 -171z m-12 -209 c24 -15 7
-19 -20 -5 -15 8 -19 14 -10 14 8 1 22 -3 30 -9z m148 -116 c161 -53 299 -103
307 -111 25 -24 18 -59 -17 -88 -18 -15 -65 -57 -104 -94 -150 -141 -172 -160
-209 -185 -21 -14 -49 -26 -63 -26 -30 0 -597 186 -629 206 -52 32 -35 54 207
269 131 116 144 124 185 125 16 0 161 -43 323 -96z m-68 86 c18 -12 2 -12 -25
0 -13 6 -15 9 -5 9 8 0 22 -4 30 -9z m355 -106 c78 -19 89 -23 83 -30 -7 -6
-220 55 -233 67 -5 5 13 2 40 -6 28 -8 77 -22 110 -31z m1736 -26 c3 -5 14 -5
24 -2 15 6 17 4 12 -10 -5 -14 -2 -17 16 -16 12 1 36 2 52 1 23 -1 27 -3 15
-11 -11 -7 -7 -10 17 -10 18 0 42 -4 55 -9 13 -5 36 -12 51 -16 15 -3 25 -10
22 -15 -4 -6 10 -10 32 -11 29 0 34 -2 18 -8 l-20 -9 20 -4 c11 -3 8 -4 -6 -2
-14 2 -35 1 -46 -2 -18 -5 -19 -9 -9 -30 11 -24 26 -32 26 -14 0 19 17 10 28
-15 23 -50 16 -65 -27 -65 -29 0 -41 -5 -44 -17 -4 -14 -5 -12 -6 5 0 12 -7
22 -13 22 -8 1 -5 7 6 15 14 10 16 18 9 27 -14 17 -22 78 -11 78 5 0 6 5 3 10
-4 6 -20 9 -36 6 -20 -3 -40 3 -64 20 -20 13 -37 24 -38 24 -2 0 -4 -17 -5
-37 -2 -28 0 -34 8 -23 6 10 10 11 10 3 0 -7 5 -13 11 -13 6 0 9 7 5 15 -7 20
4 19 21 -2 9 -11 12 -12 7 -3 -4 8 3 5 15 -7 22 -23 29 -63 11 -63 -5 0 -10
-9 -10 -20 0 -14 7 -20 23 -21 12 0 16 -3 9 -6 -7 -3 -28 2 -46 11 -39 18 -66
21 -66 6 0 -13 -57 -13 -65 -1 -7 12 28 23 49 15 23 -9 20 3 -9 34 -24 26 -25
26 -39 7 -9 -11 -16 -41 -16 -66 0 -39 3 -47 18 -45 13 1 18 -8 20 -36 4 -45
-14 -51 -23 -8 -4 17 -11 30 -16 30 -5 0 -16 16 -24 37 l-15 36 -27 -24 c-18
-16 -27 -20 -30 -11 -5 14 -43 16 -43 2 0 -5 -5 -10 -10 -10 -13 0 -2 69 14
89 8 11 13 8 23 -15 l12 -29 1 37 c0 46 -8 68 -26 68 -7 0 -20 12 -27 27 -13
25 -12 28 18 59 18 17 41 34 51 36 25 6 77 -3 85 -14z m-1496 -7 c-8 -13 -35
-15 -35 -2 0 5 8 11 18 13 21 5 26 2 17 -11z m1869 -110 c4 -5 49 -20 102 -32
54 -13 99 -30 102 -37 3 -8 -33 -51 -90 -107 -72 -69 -99 -90 -109 -83 -11 8
-10 9 2 5 12 -4 18 1 21 16 6 36 -2 57 -23 57 -21 0 -22 1 -13 24 7 18 34 10
34 -10 0 -8 4 -14 10 -14 5 0 7 -8 3 -17 -6 -16 -3 -15 16 2 23 20 23 20 2 23
-11 2 -21 8 -21 14 0 6 9 8 20 5 26 -7 40 13 34 47 -3 20 1 32 13 42 22 16 1
19 -27 4 -16 -9 -18 -8 -13 6 5 14 2 16 -20 10 -21 -5 -27 -3 -27 10 0 9 -9
18 -20 21 -11 3 -20 9 -20 14 0 12 17 12 24 0z m-587 -7 c-3 -3 -12 -4 -19 -1
-8 3 -5 6 6 6 11 1 17 -2 13 -5z m-30 -44 c-3 -12 1 -24 11 -30 16 -9 16 -9 1
-10 -9 0 -19 7 -23 15 -3 8 -10 15 -16 15 -15 0 -7 -43 13 -61 9 -9 17 -21 17
-26 0 -6 11 -8 24 -6 13 3 27 0 30 -6 4 -7 -1 -11 -13 -11 -10 0 -22 -6 -24
-12 -4 -10 -8 -10 -15 1 -6 9 -12 10 -16 3 -10 -16 -36 -3 -29 14 3 9 -2 14
-15 14 -24 0 -35 23 -19 39 8 8 8 11 -1 11 -7 0 -12 5 -12 11 0 6 8 8 19 4 14
-4 19 -1 17 12 0 9 10 23 24 30 33 17 33 16 27 -7z m-891 -86 c159 -53 297
-103 307 -112 36 -32 21 -54 -130 -203 -191 -186 -207 -199 -248 -199 -18 0
-120 30 -226 66 -107 36 -230 77 -274 91 -141 44 -155 52 -155 82 0 27 52 83
277 294 73 69 86 77 121 77 23 0 159 -40 328 -96z m959 76 c10 -11 16 -23 13
-26 -9 -8 -48 19 -48 33 0 19 14 16 35 -7z m547 -37 c8 -10 5 -13 -16 -13 -27
0 -34 19 -19 56 5 15 8 14 15 -6 5 -13 14 -30 20 -37z m-1477 7 c13 -6 15 -9
5 -9 -8 0 -22 4 -30 9 -18 12 -2 12 25 0z m930 -19 c8 -14 -30 -32 -49 -25 -9
3 -16 12 -16 20 0 16 55 20 65 5z m-180 -21 c-10 -11 -21 -18 -23 -15 -3 3 3
12 14 20 27 20 30 18 9 -5z m-648 4 c-3 -3 -12 -4 -19 -1 -8 3 -5 6 6 6 11 1
17 -2 13 -5z m683 -38 c7 -15 9 -32 5 -43 -8 -16 -9 -16 -12 5 -4 21 -23 32
-23 12 0 -5 -4 -10 -10 -10 -5 0 -10 9 -10 21 0 14 5 19 14 16 10 -4 13 -1 9
9 -9 24 13 16 27 -10z m480 9 c0 -11 -11 -15 -42 -14 -24 1 -34 3 -23 6 11 3
24 9 30 14 14 14 35 11 35 -6z m-270 -5 c0 -5 -4 -10 -10 -10 -5 0 -10 5 -10
10 0 6 5 10 10 10 6 0 10 -4 10 -10z m-2650 -25 c16 -9 19 -14 9 -15 -8 0 -24
7 -35 15 -24 18 -7 19 26 0z m2160 -5 c0 -5 -9 -10 -21 -10 -11 0 -17 5 -14
10 3 6 13 10 21 10 8 0 14 -4 14 -10z m596 1 c-10 -15 -86 -18 -86 -4 0 9 15
13 46 13 25 0 43 -4 40 -9z m114 -11 c0 -5 -7 -10 -15 -10 -8 0 -15 5 -15 10
0 6 7 10 15 10 8 0 15 -4 15 -10z m-2745 -21 c5 -5 1 -9 -12 -9 -11 0 -27 7
-34 16 -12 15 -11 16 11 9 14 -4 29 -11 35 -16z m2395 1 c0 -5 -4 -10 -10 -10
-5 0 -10 5 -10 10 0 6 5 10 10 10 6 0 10 -4 10 -10z m100 -20 c0 -15 -33 -20
-47 -8 -13 10 -12 13 4 19 20 7 43 1 43 -11z m83 13 c-7 -2 -19 -2 -25 0 -7 3
-2 5 12 5 14 0 19 -2 13 -5z m-2485 -110 c246 -84 285 -100 295 -121 11 -24 3
-33 -168 -198 -142 -136 -187 -175 -215 -180 -37 -8 -111 15 -460 139 -234 83
-231 81 -186 134 34 40 343 317 364 325 30 13 80 -1 370 -99z m2905 73 c9 -7
17 -16 17 -19 0 -9 -101 -107 -111 -107 -5 0 -9 -6 -9 -14 0 -8 -6 -18 -12
-22 -7 -4 -10 -4 -6 1 4 4 3 14 -3 21 -15 19 -2 64 19 65 9 1 4 5 -13 9 l-30
8 28 1 c16 0 40 10 54 21 32 25 43 25 36 1 -3 -11 -15 -22 -27 -24 l-21 -4 21
-2 c13 0 28 9 39 26 17 25 17 27 -1 40 -10 7 -14 13 -8 13 5 0 17 -7 27 -14z
m-2850 -3 c-7 -2 -19 -2 -25 0 -7 3 -2 5 12 5 14 0 19 -2 13 -5z m3078 -46
c-47 -45 -45 -32 3 21 16 17 32 30 35 27 3 -3 -14 -25 -38 -48z m-758 -67
c297 -99 378 -129 354 -130 -16 0 -672 222 -681 231 -6 5 -8 9 -5 9 2 0 151
-49 332 -110z m-2175 65 c12 -12 -36 -4 -54 10 -17 13 -16 14 15 5 18 -5 36
-12 39 -15z m102 -30 c54 -17 86 -35 63 -35 -17 0 -127 42 -138 53 -7 7 -5 8
5 5 8 -3 40 -13 70 -23z m2330 6 c0 -5 -9 -7 -20 -4 -11 3 -20 7 -20 9 0 2 9
4 20 4 11 0 20 -4 20 -9z m-2092 -33 c-5 -15 -58 -24 -58 -9 0 11 17 19 43 20
11 1 17 -4 15 -11z m2499 -42 c-15 -14 -27 -22 -27 -19 0 11 43 53 48 48 3 -3
-7 -16 -21 -29z m-37 -39 c0 -2 -17 -19 -37 -38 -34 -30 -35 -31 -13 -4 29 35
50 52 50 42z m-2043 -128 c297 -97 353 -119 305 -119 -27 0 -612 196 -626 210
-19 19 12 10 321 -91z m1956 34 c-3 -10 -10 -24 -16 -31 -5 -6 -13 -27 -18
-45 -8 -30 -8 -30 -5 9 2 23 12 51 22 63 22 26 25 26 17 4z m-2200 -47 c67
-25 196 -70 287 -101 194 -67 200 -70 200 -96 0 -12 -64 -85 -167 -190 -158
-160 -213 -207 -231 -195 -5 3 -19 7 -33 10 -13 2 -69 21 -124 41 -55 20 -143
51 -195 70 -52 18 -138 48 -190 67 -85 29 -119 49 -120 70 0 7 20 27 207 209
147 143 168 159 209 159 19 0 89 -20 157 -44z m-1477 -65 c230 -75 682 -243
666 -249 -12 -4 -721 246 -736 260 -16 13 6 10 70 -11z m2180 -37 c-10 -7 -25
-10 -33 -7 -12 5 -10 9 8 19 29 15 49 6 25 -12z m-1900 -181 l282 -97 27 -43
c25 -41 26 -46 21 -140 -3 -54 -7 -128 -7 -165 -1 -38 -6 -65 -11 -62 -5 4 -7
-9 -3 -29 4 -22 3 -37 -5 -42 -6 -4 -8 -15 -5 -26 5 -15 1 -19 -17 -21 -34 -2
-40 -1 -92 6 -46 7 -47 7 -34 -13 7 -11 19 -23 28 -25 8 -3 1 -4 -17 -2 -18 1
-30 -1 -27 -6 3 -4 -1 -8 -8 -8 -7 -1 -2 -7 12 -15 14 -8 21 -14 17 -15 -10 0
-148 46 -192 65 -16 7 -68 25 -115 40 -47 15 -91 32 -97 38 -7 5 -13 7 -13 3
0 -4 -13 0 -30 9 -57 30 -60 47 -60 348 0 286 2 297 45 297 11 0 147 -43 301
-97z m2245 21 c123 -42 255 -87 293 -100 77 -26 116 -52 46 -30 -99 30 -309
99 -370 121 -36 13 -94 32 -130 43 -35 11 -66 24 -68 31 -2 6 -2 11 0 11 2 0
105 -34 229 -76z m41 -79 c167 -58 313 -112 325 -121 43 -28 30 -58 -74 -173
-134 -148 -222 -239 -246 -256 -37 -26 -90 -17 -283 51 -512 178 -458 156
-462 188 -3 27 -1 30 193 236 177 187 169 180 208 180 20 0 171 -47 339 -105z
m-1827 25 c3 -5 2 -10 -4 -10 -5 0 -13 5 -16 10 -3 6 -2 10 4 10 5 0 13 -4 16
-10z m317 -141 c397 -137 512 -179 523 -190 5 -5 -129 38 -300 96 -170 59
-344 118 -385 132 -72 25 -108 43 -83 43 7 0 117 -36 245 -81z m1895 45 c-3
-3 -12 -4 -19 -1 -8 3 -5 6 6 6 11 1 17 -2 13 -5z m70 -20 c-3 -3 -12 -4 -19
-1 -8 3 -5 6 6 6 11 1 17 -2 13 -5z m-17 -28 c0 -11 -19 -15 -25 -6 -3 5 1 10
9 10 9 0 16 -2 16 -4z m-1945 -108 c151 -53 173 -63 162 -76 -10 -13 -9 -14 8
-3 17 10 36 7 120 -24 55 -20 108 -39 118 -42 9 -3 17 -9 17 -15 0 -5 9 -18
20 -30 13 -14 20 -36 21 -62 1 -57 -3 -266 -6 -296 -1 -14 -3 -71 -3 -128 -2
-99 -3 -103 -27 -114 -20 -9 -33 -8 -67 7 -130 55 -160 72 -222 128 -17 15
-33 27 -36 27 -3 0 -46 39 -95 86 -206 197 -191 185 -219 174 l-26 -10 0 204
c0 169 3 206 15 216 8 7 15 9 15 4 0 -4 5 -3 12 4 7 7 13 12 15 12 2 0 82 -28
178 -62z m2005 22 c0 -5 -5 -10 -11 -10 -5 0 -7 5 -4 10 3 6 8 10 11 10 2 0 4
-4 4 -10z m-9 -310 c-8 -93 -9 -87 -4 61 4 118 2 168 -6 173 -8 5 -8 13 1 29
11 19 13 10 16 -68 1 -49 -2 -137 -7 -195z m-1411 204 c0 -8 -4 -12 -10 -9 -5
3 -10 10 -10 16 0 5 5 9 10 9 6 0 10 -7 10 -16z m1383 -11 c3 -5 1 -91 -4
-192 -7 -144 -13 -188 -25 -202 -15 -16 -277 -109 -308 -109 -8 0 -22 -7 -30
-16 -15 -14 -16 -11 -15 38 0 29 4 62 8 73 5 12 4 25 -2 33 -8 10 -5 14 10 18
11 3 79 69 150 147 72 78 146 158 164 178 35 38 45 44 52 32z m-1149 -82 c207
-72 438 -154 546 -195 203 -75 16 -22 -250 72 -63 22 -189 66 -280 97 -154 54
-203 75 -171 75 7 0 77 -22 155 -49z m-64 -101 c-8 -5 -13 -10 -10 -10 3 0 20
-4 38 -9 23 -7 30 -7 26 1 -5 7 -2 9 7 6 8 -3 38 -13 66 -23 29 -11 49 -22 43
-25 -5 -3 4 -11 20 -17 17 -6 30 -7 30 -2 0 5 5 9 10 9 6 0 9 -5 8 -12 -2 -6
6 -13 17 -15 16 -3 17 -2 5 6 -9 7 -10 11 -3 11 6 0 18 -6 25 -13 7 -8 18 -12
24 -10 6 2 26 -3 45 -11 19 -9 27 -16 19 -16 -13 -1 -13 -2 0 -9 29 -16 63
-24 56 -12 -8 13 -4 14 18 5 9 -3 13 -10 10 -15 -3 -6 6 -7 23 -4 22 5 25 4
13 -5 -12 -9 -11 -10 7 -5 13 3 34 -1 50 -10 22 -12 23 -14 6 -10 -13 4 -23 4
-23 1 0 -3 17 -10 38 -16 50 -13 73 -39 77 -87 2 -21 0 -150 -5 -288 -8 -223
-11 -251 -27 -262 -11 -9 -19 -10 -21 -3 -2 5 -7 8 -11 5 -9 -5 -42 4 -121 35
-30 11 -95 35 -145 51 -49 17 -99 35 -110 39 -11 5 -42 16 -70 25 -27 9 -57
18 -65 22 -8 3 -19 7 -25 9 -38 9 -86 38 -104 60 -20 26 -21 33 -15 303 3 152
7 281 9 288 3 10 27 18 65 21 13 2 13 1 0 -8z m1630 -66 c0 -8 -4 -14 -10 -14
-5 0 -10 9 -10 21 0 11 5 17 10 14 6 -3 10 -13 10 -21z m-2940 -29 c0 -8 -4
-15 -10 -15 -5 0 -10 7 -10 15 0 8 5 15 10 15 6 0 10 -7 10 -15z m-43 -21 c-3
-3 -12 -4 -19 -1 -8 3 -5 6 6 6 11 1 17 -2 13 -5z m2130 -21 c-15 -16 -17 -16
-17 -1 0 9 6 18 13 21 20 7 22 -2 4 -20z m-2087 7 c0 -5 -2 -10 -4 -10 -3 0
-8 5 -11 10 -3 6 -1 10 4 10 6 0 11 -4 11 -10z m-115 -103 c-24 -222 -40 -336
-52 -362 -13 -29 -13 -29 -8 20 8 78 35 367 35 381 0 8 6 11 15 8 10 -4 13
-17 10 -47z m-340 -422 c63 -52 119 -95 124 -95 5 0 11 -3 13 -8 6 -13 115
-102 126 -102 8 0 12 -76 15 -242 2 -134 7 -258 10 -275 5 -23 3 -33 -6 -33
-8 0 -7 -4 3 -10 8 -5 11 -13 6 -17 -4 -4 -18 4 -31 20 -13 15 -27 27 -30 27
-18 0 -74 55 -80 78 -6 23 -8 24 -14 9 -6 -17 -9 -16 -32 7 -26 26 -129 109
-169 136 -62 42 -65 59 -75 382 -6 193 -4 218 16 218 6 0 61 -43 124 -95z
m890 -46 c142 -6 267 -15 277 -20 39 -21 41 -42 33 -323 -4 -149 -11 -278 -16
-287 -16 -31 -61 -35 -309 -27 -400 12 -449 16 -477 44 l-23 23 0 284 c0 348
-9 330 160 321 52 -2 212 -9 355 -15z m2375 -129 c8 -5 12 -11 10 -14 -3 -2
-14 2 -24 10 -22 15 -10 19 14 4z m-1823 -47 c-3 -10 -5 -4 -5 12 0 17 2 24 5
18 2 -7 2 -21 0 -30z m1850 5 c-3 -8 -6 -5 -6 6 -1 11 2 17 5 13 3 -3 4 -12 1
-19z m-8 -71 c-1 -59 -5 -54 -12 15 -2 26 -1 45 4 42 5 -3 9 -29 8 -57z m-1
-127 c0 -9 -3 -7 -8 5 -5 11 -8 29 -8 40 0 16 2 15 8 -5 4 -14 8 -32 8 -40z
m-31 28 c-3 -8 -6 -5 -6 6 -1 11 2 17 5 13 3 -3 4 -12 1 -19z m-1820 -130 c-3
-8 -6 -5 -6 6 -1 11 2 17 5 13 3 -3 4 -12 1 -19z m1819 -195 c-10 -10 -19 5
-10 18 6 11 8 11 12 0 2 -7 1 -15 -2 -18z m-193 -20 c-7 -2 -19 -2 -25 0 -7 3
-2 5 12 5 14 0 19 -2 13 -5z m180 0 c-7 -2 -21 -2 -30 0 -10 3 -4 5 12 5 17 0
24 -2 18 -5z m-3 -27 c0 -3 -4 -8 -10 -11 -5 -3 -10 -1 -10 4 0 6 5 11 10 11
6 0 10 -2 10 -4z m-207 -73 l127 -6 0 -71 c-1 -39 -5 -115 -9 -169 -7 -89 -10
-100 -37 -128 -31 -32 -509 -279 -541 -279 -11 0 -24 5 -31 12 -15 15 -16 190
-2 400 12 167 17 183 80 226 30 20 45 22 159 22 69 0 183 -3 254 -7z m-833
-126 c-58 -28 -176 -86 -262 -129 -87 -43 -158 -74 -158 -69 0 5 105 61 233
124 247 122 254 125 277 126 8 0 -32 -23 -90 -52z m164 -36 c17 -18 17 -38 7
-281 -13 -319 -8 -306 -144 -376 -51 -26 -169 -87 -263 -135 -95 -49 -183 -89
-197 -89 -47 0 -48 8 -39 301 7 244 10 277 27 303 14 21 85 61 289 161 149 74
278 134 287 134 9 1 24 -8 33 -18z m-604 -176 c0 -8 -61 -37 -67 -32 -3 3 8
12 24 21 29 16 43 19 43 11z m-85 -815 c3 -5 2 -10 -4 -10 -5 0 -13 5 -16 10
-3 6 -2 10 4 10 5 0 13 -4 16 -10z"/>
<path d="M12110 6735 c-16 -17 -19 -25 -9 -25 24 1 54 29 43 40 -7 7 -18 2
-34 -15z"/>
<path d="M12153 6703 c-7 -14 -10 -29 -8 -34 5 -7 40 -4 78 7 20 6 23 -11 3
-23 -10 -6 -11 -15 -5 -31 7 -19 11 -21 22 -10 27 29 48 70 45 90 -4 28 -28
36 -28 10 0 -17 -4 -19 -41 -12 -23 4 -44 12 -48 18 -3 6 -12 -1 -18 -15z"/>
<path d="M12400 6690 c0 -5 5 -10 11 -10 5 0 7 5 4 10 -3 6 -8 10 -11 10 -2 0
-4 -4 -4 -10z"/>
<path d="M12176 6609 c-9 -44 -8 -49 8 -49 14 0 26 29 26 63 0 30 -27 19 -34
-14z"/>
<path d="M12344 6609 c-10 -17 13 -36 27 -22 12 12 4 33 -11 33 -5 0 -12 -5
-16 -11z"/>
<path d="M12735 6550 c3 -5 8 -10 11 -10 2 0 4 5 4 10 0 6 -5 10 -11 10 -5 0
-7 -4 -4 -10z"/>
<path d="M12720 6531 c0 -5 5 -13 10 -16 6 -3 10 -2 10 4 0 5 -4 13 -10 16 -5
3 -10 2 -10 -4z"/>
<path d="M12480 6275 c0 -8 5 -15 10 -15 6 0 10 7 10 15 0 8 -4 15 -10 15 -5
0 -10 -7 -10 -15z"/>
<path d="M9400 5211 c0 -6 -8 -11 -17 -12 -10 0 -13 -3 -6 -5 18 -8 49 11 34
20 -6 4 -11 2 -11 -3z"/>
<path d="M10230 4781 c0 -10 19 -25 25 -20 1 2 -3 10 -11 17 -8 7 -14 8 -14 3z"/>
<path d="M10828 5173 c7 -3 16 -2 19 1 4 3 -2 6 -13 5 -11 0 -14 -3 -6 -6z"/>
<path d="M11070 5090 c8 -5 20 -10 25 -10 6 0 3 5 -5 10 -8 5 -19 10 -25 10
-5 0 -3 -5 5 -10z"/>
<path d="M7247 2990 c-29 -23 -51 -80 -42 -110 3 -11 18 -34 32 -50 64 -77
186 -1 166 104 -13 64 -104 97 -156 56z"/>
<path d="M9064 2998 c-30 -14 -49 -53 -49 -99 0 -82 95 -129 158 -79 30 23 47
74 40 114 -11 58 -91 92 -149 64z"/>
<path d="M4470 2946 c-133 -39 -215 -126 -240 -257 -19 -99 15 -205 87 -270
56 -51 94 -71 247 -130 166 -65 224 -109 252 -191 36 -109 -4 -221 -93 -260
-59 -26 -187 -22 -248 7 -84 41 -175 161 -210 280 -9 29 -18 41 -35 43 -12 2
-27 -1 -32 -6 -5 -5 -6 -85 -2 -201 l7 -191 32 0 c27 0 35 5 45 30 7 17 14 30
15 30 1 0 28 -11 60 -25 195 -87 385 -69 520 48 80 69 123 192 105 301 -23
141 -95 204 -351 306 -55 22 -118 49 -139 60 -112 57 -153 213 -80 302 40 48
86 68 159 68 137 0 237 -97 287 -279 17 -60 18 -61 52 -61 l35 0 -7 77 c-3 42
-6 127 -6 190 l0 113 -35 0 c-19 0 -35 -4 -35 -8 0 -5 -6 -16 -13 -26 -12 -16
-18 -15 -90 20 -65 31 -90 37 -159 40 -50 2 -101 -2 -128 -10z"/>
<path d="M5210 2699 l0 -131 -62 2 c-90 3 -88 4 -88 -35 l0 -35 75 0 75 0 0
-298 c0 -336 6 -373 63 -414 48 -34 178 -37 267 -6 56 20 65 27 68 49 l3 27
-83 -5 c-70 -4 -88 -1 -114 15 -48 31 -54 68 -54 366 l0 266 115 0 115 0 0 35
c0 26 -4 35 -17 36 -10 0 -62 0 -115 -1 l-98 -1 0 130 0 131 -75 0 -75 0 0
-131z"/>
<path d="M6640 2699 l0 -130 -47 1 c-103 4 -103 4 -103 -35 l0 -35 75 0 75 0
1 -302 c0 -334 6 -370 62 -412 44 -32 180 -34 267 -3 54 19 65 27 68 48 l3 24
-94 0 c-108 0 -129 11 -147 74 -5 20 -10 156 -10 304 l0 267 115 0 115 0 0 35
c0 40 9 38 -132 35 l-98 -2 0 131 0 131 -75 0 -75 0 0 -131z"/>
<path d="M8440 2699 c0 -118 -2 -130 -17 -128 -10 1 -44 1 -75 0 l-58 -1 0
-35 0 -35 75 0 74 0 3 -312 c3 -293 4 -315 24 -352 30 -57 72 -76 169 -75 106
0 198 33 203 72 l3 25 -78 -5 c-97 -6 -142 13 -160 67 -8 24 -12 124 -12 308
l-1 272 115 0 115 0 0 35 0 35 -97 1 c-54 1 -106 1 -115 0 -16 -2 -18 10 -18
128 l0 131 -75 0 -75 0 0 -131z"/>
<path d="M5911 2580 c-72 -26 -127 -64 -151 -103 -22 -36 -26 -94 -7 -118 34
-45 103 -45 138 -1 17 22 19 35 13 93 l-6 68 54 16 c133 38 217 -34 218 -186
l0 -66 -82 -30 c-46 -17 -112 -41 -148 -53 -176 -61 -240 -126 -240 -245 0
-204 240 -271 426 -119 24 20 46 35 47 33 1 -2 11 -21 21 -42 11 -21 32 -45
47 -53 34 -17 117 -18 171 -2 34 10 39 15 36 37 -3 22 -8 26 -43 29 -23 2 -49
12 -62 24 -23 21 -23 25 -23 275 0 303 -5 329 -70 394 -37 37 -58 49 -99 58
-79 17 -178 13 -240 -9z m259 -504 l0 -144 -37 -32 c-63 -56 -142 -75 -207
-50 -37 14 -66 66 -66 119 0 99 67 167 217 222 43 15 81 28 86 28 4 1 7 -64 7
-143z"/>
<path d="M7802 2581 c-96 -33 -153 -113 -153 -214 0 -64 11 -95 52 -141 38
-44 73 -63 191 -104 122 -43 166 -68 188 -105 41 -67 16 -156 -52 -187 -79
-36 -164 -22 -242 40 -43 34 -106 132 -106 164 0 11 -9 16 -31 16 l-32 0 7
-61 c3 -34 6 -97 6 -140 l0 -79 30 0 c17 0 30 5 30 13 1 33 16 36 65 12 109
-53 224 -56 322 -9 100 48 151 140 140 251 -11 103 -72 154 -269 228 -71 26
-136 57 -148 70 -50 54 -41 142 20 183 30 20 44 23 100 20 90 -5 139 -39 181
-124 26 -53 36 -64 57 -64 l25 0 -7 77 c-3 42 -6 98 -6 125 0 47 -1 48 -31 48
-23 0 -32 -5 -36 -21 -4 -14 -11 -18 -22 -13 -90 37 -199 43 -279 15z"/>
<path d="M9703 2586 c-203 -66 -312 -274 -269 -513 33 -187 146 -298 323 -318
111 -13 246 47 319 143 39 51 41 60 17 78 -16 11 -24 6 -68 -43 -60 -68 -110
-92 -188 -93 -99 0 -164 47 -213 155 -23 50 -28 77 -32 165 -7 172 30 293 109
349 36 27 51 31 104 31 46 0 69 -5 86 -19 22 -18 22 -21 11 -70 -18 -78 -15
-99 17 -132 58 -57 139 -27 148 55 15 128 -81 216 -242 223 -49 2 -96 -2 -122
-11z"/>
<path d="M7290 2584 c-193 -15 -190 -14 -190 -39 0 -20 7 -24 42 -30 26 -5 53
-18 70 -35 l28 -28 0 -291 c0 -329 2 -322 -79 -336 -35 -6 -41 -10 -41 -31 l0
-24 195 0 195 0 0 25 c0 20 -7 26 -40 35 -21 6 -46 17 -55 26 -8 8 -16 16 -17
17 -1 1 -5 162 -8 357 l-5 355 -25 1 c-14 0 -45 -1 -70 -2z"/>
<path d="M9115 2583 c-22 -1 -77 -5 -122 -9 -78 -5 -83 -7 -83 -29 0 -20 7
-24 42 -30 26 -5 53 -18 70 -35 l28 -28 0 -291 c0 -329 2 -322 -80 -336 -35
-6 -41 -10 -38 -28 3 -22 7 -22 196 -25 l192 -2 0 24 c0 21 -7 27 -37 36 -85
23 -83 14 -83 414 l0 346 -22 -2 c-13 -1 -41 -3 -63 -5z"/>
</g>
</svg>
