<?xml version="1.0" standalone="no"?>
<!DOCTYPE svg PUBLIC "-//W3C//DTD SVG 20010904//EN"
 "http://www.w3.org/TR/2001/REC-SVG-20010904/DTD/svg10.dtd">
<svg version="1.0" xmlns="http://www.w3.org/2000/svg"
 width="1600.000000pt" height="1000.000000pt" viewBox="0 0 1600.000000 1000.000000"
 preserveAspectRatio="xMidYMid meet">
<metadata>
Created by potrace 1.16, written by Peter Selinger 2001-2019
</metadata>
<g transform="translate(0.000000,1000.000000) scale(0.100000,-0.100000)"
fill="#000000" stroke="none">
<path d="M10190 7233 l-45 -48 50 45 c27 25 52 46 54 48 2 1 0 2 -5 2 -6 0
-30 -21 -54 -47z"/>
<path d="M10015 7081 c-60 -55 -117 -112 -126 -127 -8 -16 -25 -31 -37 -34
-23 -5 -51 -28 -212 -169 -52 -46 -106 -93 -120 -105 -113 -95 -159 -140 -162
-159 -2 -14 -13 -23 -34 -29 -28 -7 -329 -263 -466 -396 l-48 -46 0 -383 c0
-382 0 -382 23 -407 15 -18 82 -48 227 -102 182 -67 244 -96 229 -107 -2 -2
-107 -50 -233 -107 -125 -57 -234 -110 -241 -117 -10 -10 -12 -43 -10 -130 3
-65 7 -217 10 -337 5 -210 6 -222 30 -262 13 -23 48 -61 77 -85 29 -24 64 -54
78 -65 29 -25 154 -128 196 -162 16 -13 65 -51 108 -85 44 -34 103 -85 132
-114 29 -28 108 -98 176 -154 68 -57 134 -114 148 -126 115 -100 199 -167 220
-176 14 -6 52 -36 85 -67 58 -53 438 -365 518 -424 36 -27 41 -28 79 -16 54
16 610 296 670 338 26 18 59 32 74 32 15 0 95 35 178 79 83 43 214 111 291
151 77 40 172 92 210 115 39 23 84 45 100 48 39 8 643 321 673 350 47 44 42
12 77 516 13 177 14 239 5 255 -6 12 -66 57 -133 101 -66 44 -177 120 -245
168 -69 48 -126 87 -127 85 -7 -6 -26 -600 -21 -606 4 -3 92 38 196 91 105 53
190 95 190 92 0 -6 -120 -74 -255 -144 -135 -70 -136 -71 -136 -97 0 -113 5
-165 17 -181 12 -17 13 -17 14 0 0 9 5 17 10 17 6 0 8 15 4 40 -7 41 9 58 19
20 3 -12 13 -20 24 -19 15 1 15 2 2 6 -17 4 -32 37 -21 47 3 3 15 6 27 6 12 0
30 7 41 15 17 13 16 14 -21 9 l-40 -5 40 20 c39 19 40 19 47 0 10 -25 28 -25
28 1 0 14 7 20 24 20 13 0 26 6 28 12 3 7 15 13 28 13 13 0 25 6 28 14 3 10
-2 13 -22 9 -31 -6 -22 6 12 17 16 4 22 2 22 -8 0 -8 14 -18 33 -22 l32 -7
-32 -11 c-18 -5 -33 -16 -33 -23 0 -8 -5 -14 -11 -14 -5 0 -7 -5 -4 -11 4 -6
-1 -17 -11 -24 -18 -14 -18 -14 4 -15 16 0 22 6 23 23 0 20 1 20 8 3 4 -11 3
-30 -3 -43 -8 -16 -12 -18 -14 -8 -5 22 -32 18 -32 -4 0 -31 -19 -35 -32 -7
-11 27 -34 37 -25 12 3 -7 0 -19 -6 -25 -9 -10 -8 -15 6 -25 16 -12 16 -14 1
-20 -8 -3 -27 -6 -40 -6 -21 0 -24 -5 -24 -35 0 -43 -9 -44 -49 -6 -32 30 -38
46 -21 54 6 3 5 4 -2 3 -8 -2 -13 -18 -12 -45 1 -33 -3 -41 -17 -41 -9 0 -19
-6 -22 -12 -2 -8 -8 -9 -13 -4 -5 5 -4 11 4 13 16 6 15 28 -2 42 -12 10 -13 8
-9 -9 3 -12 1 -25 -5 -29 -6 -3 -14 -42 -17 -85 -4 -56 -11 -87 -26 -107 -20
-29 -39 -38 -39 -19 0 6 5 10 10 10 20 0 30 54 35 188 3 76 8 173 11 217 3 44
7 306 9 582 3 484 3 502 -15 500 -10 -1 -16 -5 -14 -9 3 -4 0 -8 -6 -8 -6 0
-72 -61 -147 -135 -74 -75 -140 -134 -147 -132 -6 2 -14 30 -17 63 -7 61 -3
347 7 491 7 94 16 110 125 225 35 36 92 97 126 135 34 37 87 95 118 128 l56
60 -5 -80 c-4 -66 -21 -524 -21 -575 0 -27 41 -23 64 6 11 15 21 32 21 39 0 7
7 12 15 11 13 -1 16 26 20 174 6 176 19 385 30 450 l6 35 -16 -29 c-12 -20
-20 -69 -25 -160 l-9 -131 4 143 c3 114 8 151 22 177 10 19 65 83 123 142 58
60 138 146 178 192 62 71 73 88 70 114 -4 44 -29 55 -408 177 -415 133 -415
133 -451 115 -38 -20 -44 -19 -57 10 -6 13 -28 32 -49 41 -33 14 -249 80 -553
170 -47 14 -102 32 -123 41 -41 18 -88 21 -124 8 -18 -6 -23 -3 -29 20 -6 26
-28 40 -91 59 -20 6 -23 4 -23 -19 0 -29 -35 -66 -241 -255 -97 -89 -112 -100
-146 -100 -33 0 -533 144 -610 175 -37 16 -54 42 -43 71 5 11 37 46 72 77 34
31 59 57 53 57 -5 -1 -59 -45 -120 -99z m1320 -33 c22 -5 52 -16 67 -24 14 -8
36 -14 47 -14 12 0 21 -5 21 -11 0 -7 10 -9 25 -5 14 4 25 2 25 -3 0 -4 19
-12 43 -16 23 -4 36 -9 30 -12 -12 -4 -19 -83 -9 -83 2 0 13 -3 23 -6 15 -5
16 -4 3 6 -11 9 -12 13 -2 17 6 2 12 18 12 34 0 28 13 39 25 19 3 -5 33 -23
66 -40 33 -17 57 -25 53 -19 -5 9 0 10 17 5 13 -4 31 -9 39 -10 52 -9 80 -19
80 -30 0 -19 -21 -35 -39 -29 -12 4 -13 3 -2 -5 11 -8 10 -13 -5 -31 -10 -11
-24 -21 -31 -21 -7 0 -13 -3 -13 -8 0 -9 -56 -72 -65 -72 -11 0 -35 -28 -35
-40 0 -7 -7 -10 -15 -6 -8 3 -14 2 -13 -2 1 -4 -24 -33 -55 -64 -52 -52 -60
-56 -92 -51 -19 3 -32 9 -29 14 3 5 0 9 -6 9 -26 0 -120 32 -120 41 0 5 14 12
30 16 17 3 30 10 30 15 0 6 -7 7 -16 4 -9 -3 -24 -6 -35 -6 -12 0 -19 -7 -19
-20 0 -11 -5 -20 -11 -20 -19 0 -79 32 -79 42 0 6 -9 8 -20 5 -11 -3 -20 -2
-20 3 0 4 -11 5 -25 2 -21 -4 -24 -1 -18 14 5 14 3 16 -12 11 -9 -4 -24 -2
-31 4 -8 6 -20 9 -28 6 -10 -4 -13 -1 -10 7 6 16 -53 30 -80 20 -11 -4 -16 -1
-16 10 0 11 -9 16 -32 16 -18 0 -41 7 -50 14 -17 12 -17 14 2 31 13 12 20 14
20 5 0 -7 7 -10 15 -7 8 4 17 2 20 -3 9 -15 25 -12 25 5 0 8 -5 15 -11 15 -22
0 -3 46 28 65 18 11 32 25 33 32 0 6 16 17 35 23 19 6 33 16 30 20 -4 7 66 82
120 128 14 12 35 12 80 0z m-1228 -129 c35 -12 62 -24 59 -26 -5 -6 -119 27
-130 38 -15 14 2 11 71 -12z m111 -105 c161 -53 300 -103 308 -111 25 -25 16
-58 -27 -96 -22 -21 -84 -77 -137 -126 -164 -151 -176 -160 -211 -167 -28 -6
-92 12 -330 91 -163 53 -306 103 -318 111 -51 32 -31 59 206 269 126 113 144
124 186 125 17 0 162 -43 323 -96z m67 46 c3 -5 2 -10 -4 -10 -5 0 -13 5 -16
10 -3 6 -2 10 4 10 5 0 13 -4 16 -10z m172 -51 c135 -38 137 -38 131 -45 -6
-6 -210 51 -236 65 -27 16 -10 13 105 -20z m2031 -109 c152 -49 284 -90 293
-90 19 0 39 -20 39 -39 0 -8 -51 -67 -113 -130 -63 -64 -139 -142 -171 -175
-41 -43 -59 -56 -69 -48 -6 5 -28 12 -47 15 -19 2 -53 12 -75 20 -76 30 -421
147 -433 147 -23 0 -102 42 -102 54 0 6 76 88 170 180 160 160 171 168 200
162 17 -3 156 -46 308 -96z m-1738 70 c0 -13 -28 -25 -38 -16 -3 4 0 11 8 16
20 13 30 12 30 0z m357 -256 c158 -53 296 -103 306 -112 35 -31 21 -54 -130
-203 -188 -184 -206 -199 -248 -199 -19 0 -121 30 -227 66 -106 36 -229 77
-273 91 -141 44 -155 52 -155 82 0 27 52 83 277 294 74 69 86 77 121 77 24 0
158 -39 329 -96z m71 31 c37 -13 62 -24 56 -24 -14 -1 -155 47 -163 55 -7 7
15 1 107 -31z m-1693 -81 c28 -14 38 -23 24 -20 -32 7 -99 35 -99 41 0 11 28
3 75 -21z m2155 -4 c0 -5 -9 -10 -21 -10 -11 0 -17 5 -14 10 3 6 13 10 21 10
8 0 14 -4 14 -10z m-2025 -31 c5 -5 0 -9 -12 -9 -28 0 -53 10 -53 21 0 11 50
1 65 -12z m-103 -55 c57 -20 180 -62 275 -93 94 -31 181 -65 192 -75 20 -18
20 -21 5 -44 -15 -22 -203 -208 -307 -302 -76 -69 -58 -73 -592 119 -178 64
-178 61 -3 217 73 65 156 140 183 166 45 43 55 48 97 48 28 0 87 -14 150 -36z
m253 7 c3 -6 -4 -8 -16 -6 -30 6 -37 15 -11 15 11 0 23 -4 27 -9z m2086 -36
c57 -20 205 -69 329 -110 201 -67 272 -94 246 -95 -16 0 -671 222 -680 231
-15 14 -7 12 105 -26z m-1896 -25 c81 -24 112 -37 119 -48 7 -11 -224 66 -238
79 -5 5 6 4 25 -2 19 -6 61 -19 94 -29z m2681 2 c-18 -16 -18 -16 -6 6 6 13
14 21 18 18 3 -4 -2 -14 -12 -24z m-903 -45 c-4 -6 11 -8 38 -4 24 3 36 3 26
0 -24 -6 -11 -23 19 -23 17 0 23 4 19 13 -4 6 0 4 9 -7 9 -11 22 -16 32 -12
10 4 28 -4 47 -20 21 -18 39 -25 58 -22 15 3 26 1 23 -4 -3 -4 9 -5 26 -2 20
4 30 3 30 -5 0 -8 8 -10 20 -6 15 5 18 3 14 -9 -3 -8 -12 -12 -20 -9 -8 3 -18
-5 -25 -21 -15 -32 -46 -34 -52 -3 -3 13 -5 7 -6 -16 -1 -37 16 -67 38 -67 6
0 11 14 11 30 0 23 4 30 20 30 11 0 20 -4 20 -10 0 -5 16 -10 35 -10 45 0 45
12 -1 29 -43 15 -40 19 16 27 37 5 42 4 37 -10 -9 -22 20 -35 55 -25 19 5 26
4 22 -3 -4 -6 1 -8 15 -3 16 5 20 3 15 -9 -6 -16 7 -21 46 -18 12 0 11 -2 -2
-12 -10 -7 -18 -18 -18 -25 0 -6 -7 -11 -15 -11 -8 0 -15 -4 -15 -9 0 -16
-140 -155 -148 -147 -4 4 5 18 19 29 14 12 29 30 32 40 4 9 11 17 17 17 15 0
12 30 -2 31 -7 0 -4 4 7 9 18 8 17 9 -8 9 -27 1 -28 -1 -22 -31 4 -22 3 -28
-3 -20 -5 8 -13 13 -18 13 -5 0 -25 4 -44 9 -19 6 -49 10 -67 10 -25 0 -33 5
-36 23 l-4 22 -8 -22 c-4 -13 -15 -23 -25 -23 -10 0 -21 10 -25 23 -5 12 -11
31 -15 42 -4 12 -10 -11 -14 -62 -7 -74 -10 -83 -28 -83 -19 0 -20 5 -16 78 3
42 3 60 1 40 -5 -42 -8 -45 -29 -24 -17 18 -18 33 -1 39 6 3 0 6 -14 6 -14 1
-34 -8 -45 -20 -15 -16 -16 -24 -6 -39 15 -24 16 -80 1 -80 -6 0 -9 -19 -7
-46 3 -42 7 -49 37 -65 35 -18 50 -52 30 -64 -6 -4 -9 0 -7 10 2 11 -9 21 -36
30 -43 15 -69 35 -45 35 11 0 13 11 11 50 -4 48 -5 50 -33 50 -27 0 -29 -3
-31 -42 l-1 -43 -4 42 c-3 32 -11 48 -34 68 -41 34 -49 32 -49 -15 0 -37 -2
-40 -27 -40 -40 0 -74 -11 -67 -21 9 -15 -33 -10 -45 5 -7 8 -21 12 -33 8 -16
-4 -19 -2 -13 8 6 10 1 12 -26 7 -24 -5 -30 -4 -19 3 8 5 37 10 64 10 39 0 47
-3 42 -15 -6 -17 7 -19 35 -5 25 14 27 55 2 45 -33 -14 -63 -17 -63 -7 0 5 -8
12 -17 15 -10 2 -25 8 -34 11 -10 4 -24 0 -34 -11 -24 -24 -53 -25 -65 -2 -11
19 1 32 32 34 21 2 24 -15 6 -33 -8 -8 -8 -12 -1 -12 16 0 24 28 17 56 -5 21
-9 23 -23 12 -14 -12 -14 -11 -2 4 12 17 15 16 44 -4 21 -15 42 -21 65 -19 25
2 32 -1 27 -9 -9 -15 13 -30 32 -23 10 4 11 9 2 19 -9 11 -7 14 10 14 11 0 21
5 21 11 0 7 -10 9 -25 7 -21 -4 -23 -3 -14 13 5 11 14 19 19 19 6 0 9 22 8 49
-2 38 -5 46 -15 36 -6 -7 -10 -21 -7 -31 5 -24 -4 -36 -40 -52 -37 -17 -51 -4
-35 32 11 22 17 26 38 21 18 -4 22 -3 12 4 -10 7 -6 16 20 41 32 30 32 32 9
25 -22 -7 -23 -6 -12 8 7 8 21 13 31 10 21 -5 46 22 46 50 0 11 6 22 14 25 9
3 11 0 6 -8 -5 -9 -4 -11 4 -6 6 4 9 11 6 16 -3 5 5 18 17 29 23 22 44 29 33
11 -3 -5 -2 -10 4 -10 5 0 11 6 13 12 4 10 11 10 34 0 23 -11 26 -11 17 -1
-21 21 -15 30 6 12 11 -9 17 -21 14 -26z m-1495 1 c-5 -15 -58 -24 -58 -10 0
15 12 22 38 22 14 0 22 -5 20 -12z m1307 -78 c-10 -11 -20 -18 -23 -16 -5 6
21 35 32 36 5 0 1 -9 -9 -20z m592 -26 c-3 -3 -12 -4 -19 -1 -8 3 -5 6 6 6 11
1 17 -2 13 -5z m-1723 -25 c121 -35 550 -181 560 -190 27 -24 -61 0 -331 91
-164 55 -302 105 -307 110 -14 14 -2 13 78 -11z m123 -139 c303 -106 333 -117
352 -129 17 -11 8 -39 -16 -48 -10 -4 -21 -10 -24 -15 -3 -5 -68 -73 -145
-152 -76 -79 -145 -151 -152 -160 -7 -9 -23 -16 -35 -16 -14 0 -18 3 -10 8 8
5 -1 8 -21 8 -20 0 -32 -4 -29 -10 4 -5 -1 -7 -11 -3 -10 4 -22 7 -27 7 -6 0
-7 5 -3 12 4 6 3 8 -4 4 -17 -10 -306 95 -290 106 9 7 8 8 -6 4 -25 -8 -113
21 -120 40 -3 7 -11 14 -18 14 -9 0 -9 -3 2 -11 12 -9 12 -10 -3 -5 -11 3 -30
9 -43 12 -13 3 -21 11 -17 17 4 7 0 8 -12 3 -19 -7 -55 18 -55 39 0 11 332
337 364 357 25 17 76 4 323 -82z m881 3 c16 -16 16 -16 -1 -10 -10 4 -23 7
-28 7 -6 0 -7 5 -4 10 9 14 14 13 33 -7z m-2451 -32 c101 -34 537 -191 601
-217 23 -9 42 -21 42 -25 0 -5 -12 -4 -27 2 -27 10 -199 72 -408 146 -55 19
-145 51 -200 71 -155 55 -162 74 -8 23z m2830 23 c-3 -3 -12 -4 -19 -1 -8 3
-5 6 6 6 11 1 17 -2 13 -5z m37 -46 c4 -24 3 -38 -4 -38 -5 0 -10 19 -10 42 0
49 5 47 14 -4z m-704 12 c0 -16 -35 -29 -50 -20 -12 7 -9 11 10 19 33 13 40
13 40 1z m1030 -31 c0 -5 -9 -9 -20 -9 -11 0 -20 -4 -20 -9 0 -5 -11 -12 -25
-15 -30 -8 -32 -22 -5 -31 11 -3 20 -10 20 -15 0 -5 -29 -39 -64 -75 -51 -53
-69 -65 -95 -65 -33 0 -38 8 -18 29 10 11 8 12 -10 6 -14 -4 -31 0 -45 9 -22
16 -22 16 18 16 33 0 43 -4 52 -24 8 -18 17 -23 31 -19 26 7 30 20 21 68 -4
22 -8 34 -9 28 0 -7 -7 -13 -15 -13 -8 0 -17 6 -19 13 -4 8 -8 9 -14 1 -5 -7
-23 -9 -53 -4 l-45 7 38 2 c43 1 49 20 15 44 -23 16 -23 16 10 16 28 1 32 -2
32 -24 0 -18 5 -25 20 -25 14 0 20 7 20 24 0 19 4 23 20 19 21 -5 28 11 10 22
-5 3 -10 12 -10 18 0 7 4 6 10 -3 6 -10 10 -11 10 -2 0 15 44 16 71 2 15 -8
19 -7 19 4 0 8 8 16 18 19 20 4 32 -1 32 -14z m-674 -153 c296 -100 367 -126
360 -133 -3 -3 -61 13 -128 36 -68 23 -204 68 -303 101 -99 33 -181 64 -183
70 -2 5 -2 10 0 10 3 0 117 -38 254 -84z m-2609 -168 c-1 -46 -3 -11 -3 77 0
88 2 125 3 83 2 -42 2 -114 0 -160z m2743 222 c0 -5 -10 -10 -22 -10 -19 0
-20 2 -8 10 19 13 30 13 30 0z m-2560 -15 c33 -19 21 -19 -21 0 -19 8 -27 14
-19 14 8 0 26 -6 40 -14z m2603 -2 c-7 -2 -19 -2 -25 0 -7 3 -2 5 12 5 14 0
19 -2 13 -5z m54 1 c-3 -3 -12 -4 -19 -1 -8 3 -5 6 6 6 11 1 17 -2 13 -5z
m-215 -109 c167 -58 313 -112 325 -121 53 -34 27 -71 -245 -358 -103 -109
-106 -109 -357 -21 -104 37 -235 82 -290 101 -173 61 -170 59 -173 88 -3 27
-4 27 188 231 177 187 174 185 213 185 20 0 171 -47 339 -105z m238 73 c10 -6
1 -7 -25 -3 -22 4 -44 11 -50 16 -12 12 53 0 75 -13z m817 -165 c-2 -27 -3 -5
-3 47 0 52 1 74 3 48 2 -27 2 -69 0 -95z m-2882 117 c3 -5 2 -10 -4 -10 -5 0
-13 5 -16 10 -3 6 -2 10 4 10 5 0 13 -4 16 -10z m-345 -10 c8 -5 11 -10 5 -10
-5 0 -17 5 -25 10 -8 5 -10 10 -5 10 6 0 17 -5 25 -10z m120 -40 c18 -12 2
-12 -25 0 -13 6 -15 9 -5 9 8 0 22 -4 30 -9z m681 -139 c204 -71 376 -134 382
-141 10 -10 8 -11 -8 -6 -24 9 -568 197 -675 233 -72 25 -107 43 -82 43 6 0
178 -58 383 -129z m1756 93 c-3 -3 -12 -4 -19 -1 -8 3 -5 6 6 6 11 1 17 -2 13
-5z m72 -20 c10 -9 -35 -3 -49 6 -11 8 -7 9 15 4 17 -4 32 -8 34 -10z m-19
-28 c0 -11 -19 -15 -25 -6 -3 5 1 10 9 10 9 0 16 -2 16 -4z m-2096 -55 c4 -5
-3 -7 -14 -4 -23 6 -26 13 -6 13 8 0 17 -4 20 -9z m43 -17 c-3 -3 -12 -4 -19
-1 -8 3 -5 6 6 6 11 1 17 -2 13 -5z m2660 -41 c-3 -10 -5 -2 -5 17 0 19 2 27
5 18 2 -10 2 -26 0 -35z m-2544 2 c43 -15 76 -29 73 -32 -5 -6 -121 34 -156
54 -28 16 -25 15 83 -22z m-1126 -22 c-3 -10 -5 -2 -5 17 0 19 2 27 5 18 2
-10 2 -26 0 -35z m3122 -158 c-12 -225 -18 -250 -13 -54 3 131 1 169 -10 178
-7 6 -17 7 -22 3 -4 -4 3 5 16 20 14 15 28 24 31 20 3 -4 2 -79 -2 -167z
m-1767 99 c71 -26 127 -48 125 -51 -3 -2 -47 12 -100 30 -60 22 -100 31 -108
26 -8 -5 -18 -9 -24 -9 -5 0 -3 4 5 10 16 10 15 11 -20 27 -57 26 1 10 122
-33z m348 0 c0 -8 -4 -12 -10 -9 -5 3 -10 10 -10 16 0 5 5 9 10 9 6 0 10 -7
10 -16z m1385 -13 c10 -17 -14 -373 -27 -393 -12 -17 -220 -94 -306 -113 -42
-9 -52 -30 -52 -109 0 -36 -3 -66 -7 -66 -7 0 -2 113 10 289 2 25 10 39 29 50
15 9 95 91 179 184 85 92 157 167 161 167 4 0 9 -4 13 -9z m-1918 -27 c-3 -3
-12 -4 -19 -1 -8 3 -5 6 6 6 11 1 17 -2 13 -5z m43 -8 c0 -11 -19 -15 -25 -6
-3 5 1 10 9 10 9 0 16 -2 16 -4z m643 -17 c135 -45 324 -112 354 -125 17 -8
34 -14 39 -14 8 0 198 -67 229 -81 11 -5 38 -15 60 -23 22 -8 35 -15 28 -15
-13 -1 -175 50 -333 106 -63 23 -189 67 -280 98 -153 53 -203 75 -172 75 7 0
41 -9 75 -21z m-819 -4 c-4 -8 -8 -15 -10 -15 -2 0 -4 7 -4 15 0 8 4 15 10 15
5 0 7 -7 4 -15z m476 4 c0 -5 6 -7 13 -3 8 5 8 2 -2 -9 -7 -9 -19 -17 -25 -17
-6 0 -4 5 4 10 10 6 11 10 3 10 -7 0 -13 5 -13 10 0 6 5 10 10 10 6 0 10 -5
10 -11z m-260 -49 c0 -5 -5 -10 -11 -10 -5 0 -7 5 -4 10 3 6 8 10 11 10 2 0 4
-4 4 -10z m31 -13 c-10 -9 -11 -8 -5 6 3 10 9 15 12 12 3 -3 0 -11 -7 -18z
m86 -12 c8 -9 13 -19 10 -22 -6 -5 -37 21 -37 31 0 10 11 6 27 -9z m1543 12
c0 -2 -10 -12 -22 -23 l-23 -19 19 23 c18 21 26 27 26 19z m-1630 -37 c0 -5
-4 -10 -10 -10 -5 0 -10 5 -10 10 0 6 5 10 10 10 6 0 10 -4 10 -10z m160 -1
c0 -23 -23 -89 -32 -89 -4 0 -8 11 -8 25 0 14 5 25 10 25 6 0 10 11 10 25 0
14 5 25 10 25 6 0 10 -5 10 -11z m-80 -29 c0 -5 -4 -10 -10 -10 -5 0 -10 5
-10 10 0 6 5 10 10 10 6 0 10 -4 10 -10z m1471 -23 c-13 -12 -20 -15 -15 -7
12 22 28 39 33 34 3 -3 -6 -15 -18 -27z m-1554 17 c-3 -3 -12 -4 -19 -1 -8 3
-5 6 6 6 11 1 17 -2 13 -5z m193 2 c0 -2 -7 -6 -15 -10 -8 -3 -15 -1 -15 4 0
6 7 10 15 10 8 0 15 -2 15 -4z m-302 -13 c-10 -2 -26 -2 -35 0 -10 3 -2 5 17
5 19 0 27 -2 18 -5z m2332 -49 c0 -14 -12 -19 -23 -8 -9 9 4 35 14 28 5 -3 9
-12 9 -20z m-2053 -4 c-3 -11 -1 -20 4 -20 5 0 9 -9 9 -20 0 -15 -7 -20 -25
-20 -18 0 -25 5 -25 19 0 10 7 21 15 25 8 3 15 12 15 21 0 8 3 15 6 15 4 0 4
-9 1 -20z m-250 -16 c-3 -3 -12 -4 -19 -1 -8 3 -5 6 6 6 11 1 17 -2 13 -5z
m167 -9 c-4 -8 -11 -12 -16 -9 -6 4 -5 10 3 15 19 12 19 11 13 -6z m133 9 c-3
-3 -12 -4 -19 -1 -8 3 -5 6 6 6 11 1 17 -2 13 -5z m1153 -49 c-7 -8 -17 -12
-23 -8 -6 4 -3 11 8 19 23 17 32 10 15 -11z m-1350 1 c0 -24 -15 -26 -28 -5
-11 16 -9 19 8 19 11 0 20 -6 20 -14z m183 -30 c4 -10 1 -13 -9 -9 -7 3 -14 0
-14 -6 0 -12 -41 -14 -77 -5 -40 11 -25 19 27 16 32 -3 50 0 50 7 0 16 17 13
23 -3z m-1039 -85 c-15 -154 -37 -310 -49 -346 -18 -51 -18 -56 5 185 11 113
20 210 20 217 0 7 7 10 15 7 12 -5 14 -18 9 -63z m1083 27 c-3 -7 -5 -2 -5 12
0 14 2 19 5 13 2 -7 2 -19 0 -25z m-57 -3 c7 -9 10 -18 7 -21 -10 -11 -37 5
-37 21 0 19 14 19 30 0z m-63 -31 c-3 -3 -12 -4 -19 -1 -8 3 -5 6 6 6 11 1 17
-2 13 -5z m78 -14 c-3 -5 -10 -10 -16 -10 -5 0 -9 5 -9 10 0 6 7 10 16 10 8 0
12 -4 9 -10z m10 -80 c3 -5 1 -10 -4 -10 -6 0 -11 5 -11 10 0 6 2 10 4 10 3 0
8 -4 11 -10z m-55 -30 c0 -5 -4 -10 -10 -10 -5 0 -10 5 -10 10 0 6 5 10 10 10
6 0 10 -4 10 -10z m-1450 -226 c0 -21 -4 -33 -10 -29 -5 3 -10 19 -10 36 0 16
5 29 10 29 6 0 10 -16 10 -36z m2697 -106 c-2 -24 -4 -5 -4 42 0 47 2 66 4 43
2 -24 2 -62 0 -85z m-1807 17 c179 -8 338 -15 353 -15 17 0 38 -11 54 -26 l26
-26 -7 -276 c-4 -152 -12 -284 -17 -293 -14 -26 -63 -38 -136 -34 -38 2 -156
6 -263 10 -314 9 -360 14 -387 41 -23 23 -23 23 -23 307 0 258 2 285 18 299
15 14 38 25 52 27 3 0 151 -6 330 -14z m1807 -117 c-3 -7 -5 -2 -5 12 0 14 2
19 5 13 2 -7 2 -19 0 -25z m-2309 -195 c-1 -135 -2 -136 -8 -48 -6 83 -2 185
6 185 2 0 3 -62 2 -137z m3632 105 c0 -17 -20 -47 -20 -31 0 6 -8 14 -17 16
-10 2 -8 3 5 2 16 -2 22 2 18 11 -3 8 -1 14 4 14 6 0 10 -6 10 -12z m-68 -25
c2 -5 16 -15 31 -24 16 -9 28 -19 28 -22 -1 -4 -1 -21 -1 -39 0 -30 -1 -31
-17 -15 -16 15 -16 18 1 35 16 18 16 20 0 26 -9 4 -25 4 -35 1 -14 -5 -16 -13
-12 -39 3 -20 1 -36 -6 -41 -9 -5 -11 12 -9 59 2 58 10 81 20 59z m-67 -43
c18 -8 17 -9 -7 -9 -15 -1 -30 4 -33 9 -7 12 12 12 40 0z m-117 -64 c-11 -10
-58 -15 -58 -6 0 5 11 12 25 16 14 3 26 11 26 18 1 6 3 3 6 -7 3 -10 3 -20 1
-21z m242 -26 c0 -5 -4 -10 -10 -10 -5 0 -10 5 -10 10 0 6 5 10 10 10 6 0 10
-4 10 -10z m-40 -50 c0 -11 -4 -20 -10 -20 -5 0 -10 9 -10 20 0 11 5 20 10 20
6 0 10 -9 10 -20z m10 -40 c0 -5 -7 -10 -15 -10 -8 0 -15 5 -15 10 0 6 7 10
15 10 8 0 15 -4 15 -10z m-55 -30 c-5 -8 -11 -8 -17 -2 -6 6 -7 16 -3 22 5 8
11 8 17 2 6 -6 7 -16 3 -22z m-359 -28 c-11 -10 -15 4 -8 28 l7 25 3 -23 c2
-13 1 -26 -2 -30z m35 -125 c-8 -8 -11 -7 -11 4 0 20 13 34 18 19 3 -7 -1 -17
-7 -23z m-338 -167 c5 -4 4 -78 0 -164 -8 -132 -12 -160 -29 -183 -14 -19
-103 -70 -283 -161 -255 -129 -264 -133 -287 -117 -17 11 -23 22 -20 38 3 12
8 121 11 242 7 247 13 286 50 303 14 6 25 16 25 22 0 5 6 10 14 10 7 0 20 7
27 16 12 15 39 16 249 9 129 -4 239 -10 243 -15z m-854 -64 c-12 -12 -519
-253 -519 -248 0 15 479 252 509 252 8 0 12 -2 10 -4z m76 -96 c9 -15 -15
-511 -27 -542 -5 -14 -19 -35 -31 -46 -37 -34 -536 -284 -560 -280 l-22 3 0
282 c0 269 1 283 21 310 21 28 96 69 417 226 159 77 180 82 202 47z m-615
-165 c0 -8 -61 -37 -67 -32 -3 3 8 12 24 21 29 16 43 19 43 11z"/>
<path d="M11366 6964 c-5 -12 -2 -15 10 -10 8 3 20 6 25 6 5 0 9 5 9 10 0 16
-37 11 -44 -6z"/>
<path d="M11703 6853 c-7 -2 -13 -9 -13 -14 0 -6 5 -7 10 -4 6 3 10 1 10 -4 0
-6 6 -11 13 -11 15 0 43 17 37 23 -10 9 -45 15 -57 10z"/>
<path d="M11600 6830 c0 -5 5 -10 10 -10 6 0 10 5 10 10 0 6 -4 10 -10 10 -5
0 -10 -4 -10 -10z"/>
<path d="M11715 6760 c10 -19 20 -27 31 -23 8 3 12 8 10 11 -3 3 -1 11 6 19 8
11 7 12 -5 8 -8 -4 -18 -2 -22 4 -3 6 -13 11 -21 11 -13 0 -12 -4 1 -30z"/>
<path d="M11680 6691 c0 -5 5 -13 10 -16 6 -3 10 -2 10 4 0 5 -4 13 -10 16 -5
3 -10 2 -10 -4z"/>
<path d="M11314 6625 c-25 -19 -14 -19 22 0 16 8 22 15 13 15 -8 0 -24 -7 -35
-15z"/>
<path d="M11600 6630 c0 -5 7 -10 16 -10 8 0 12 5 9 10 -3 6 -10 10 -16 10 -5
0 -9 -4 -9 -10z"/>
<path d="M11520 6596 c0 -8 5 -18 10 -21 6 -3 10 3 10 14 0 12 -4 21 -10 21
-5 0 -10 -6 -10 -14z"/>
<path d="M11498 6563 c7 -3 16 -2 19 1 4 3 -2 6 -13 5 -11 0 -14 -3 -6 -6z"/>
<path d="M11701 6221 c-8 -5 -20 -7 -26 -5 -7 3 -15 -2 -18 -10 -4 -10 -1 -13
9 -9 7 3 14 0 14 -6 0 -20 17 -12 28 14 13 28 13 28 -7 16z"/>
<path d="M11749 6212 c-14 -6 -15 -9 -3 -20 9 -8 14 -9 14 -2 0 8 11 9 30 5
31 -7 42 8 14 19 -19 7 -34 7 -55 -2z"/>
<path d="M11566 6177 c-34 -29 -38 -97 -6 -97 16 0 20 7 20 35 0 19 5 35 10
35 6 0 11 -34 12 -77 1 -47 3 -61 5 -35 6 57 33 59 33 2 0 -29 4 -40 15 -40
11 0 15 11 15 40 0 28 -4 40 -14 40 -11 0 -16 15 -18 51 -2 43 -7 53 -25 60
-16 6 -28 2 -47 -14z"/>
<path d="M11841 6133 c2 -53 2 -55 8 -18 4 27 12 41 24 43 14 3 17 -4 19 -40
1 -39 2 -40 5 -9 7 54 -4 81 -32 81 -24 0 -25 -3 -24 -57z"/>
<path d="M11978 6173 c12 -2 32 -2 45 0 12 2 2 4 -23 4 -25 0 -35 -2 -22 -4z"/>
<path d="M11943 6120 c0 -25 2 -35 4 -22 2 12 2 32 0 45 -2 12 -4 2 -4 -23z"/>
<path d="M12155 6078 c-4 -10 -13 -18 -21 -18 -8 0 -14 -4 -14 -10 0 -5 -9
-10 -20 -10 -13 0 -20 -7 -20 -20 0 -13 7 -20 20 -20 13 0 20 7 20 20 0 11 6
20 14 20 8 0 16 7 20 15 3 9 17 15 33 14 17 -1 21 -3 10 -6 -24 -6 -11 -23 18
-23 13 0 25 -3 28 -7 2 -5 2 -2 1 5 -2 6 2 12 9 12 7 0 22 7 33 16 18 15 18
15 -5 10 -33 -7 -87 4 -70 15 8 5 1 7 -19 7 -21 -1 -33 -7 -37 -20z"/>
<path d="M11540 5960 c0 -33 3 -40 20 -40 17 0 20 7 20 40 0 33 -3 40 -20 40
-17 0 -20 -7 -20 -40z"/>
<path d="M11680 5950 c0 -17 7 -20 40 -20 33 0 40 3 40 20 0 17 -7 20 -40 20
-33 0 -40 -3 -40 -20z"/>
<path d="M10683 5883 c9 -2 25 -2 35 0 9 3 1 5 -18 5 -19 0 -27 -2 -17 -5z"/>
<path d="M9870 5720 c0 -6 7 -10 15 -10 8 0 15 2 15 4 0 2 -7 6 -15 10 -8 3
-15 1 -15 -4z"/>
<path d="M9940 5690 c0 -5 5 -10 11 -10 5 0 7 5 4 10 -3 6 -8 10 -11 10 -2 0
-4 -4 -4 -10z"/>
<path d="M12006 5833 c4 -15 9 -30 11 -32 6 -8 21 13 25 34 2 14 -3 21 -20 23
-20 3 -22 1 -16 -25z"/>
<path d="M12872 6378 c-33 -35 -86 -92 -118 -127 -33 -35 -76 -81 -96 -102
-37 -38 -47 -59 -29 -59 5 0 11 4 13 9 2 5 55 65 119 132 64 68 131 141 149
162 55 63 27 52 -38 -15z"/>
<path d="M12630 4135 c0 -13 4 -14 20 -5 11 6 20 13 20 15 0 3 -9 5 -20 5 -11
0 -20 -7 -20 -15z"/>
<path d="M12550 4070 c-13 -8 -12 -10 3 -10 9 0 17 5 17 10 0 12 -1 12 -20 0z"/>
<path d="M12545 4030 c-18 -8 -17 -9 8 -9 15 -1 27 4 27 9 0 12 -8 12 -35 0z"/>
<path d="M6760 2826 c0 -2 8 -10 18 -17 15 -13 16 -12 3 4 -13 16 -21 21 -21
13z"/>
<path d="M8575 2810 c3 -5 8 -10 11 -10 2 0 4 5 4 10 0 6 -5 10 -11 10 -5 0
-7 -4 -4 -10z"/>
<path d="M6246 2527 c3 -10 9 -15 12 -12 3 3 0 11 -7 18 -10 9 -11 8 -5 -6z"/>
<path d="M4280 2456 c0 -2 8 -10 18 -17 15 -13 16 -12 3 4 -13 16 -21 21 -21
13z"/>
<path d="M10096 1957 c3 -10 9 -15 12 -12 3 3 0 11 -7 18 -10 9 -11 8 -5 -6z"/>
<path d="M4285 1829 c-4 -6 -5 -12 -2 -15 2 -3 7 2 10 11 7 17 1 20 -8 4z"/>
<path d="M8948 1773 c6 -2 18 -2 25 0 6 3 1 5 -13 5 -14 0 -19 -2 -12 -5z"/>
</g>
</svg>
