<?xml version="1.0" standalone="no"?>
<!DOCTYPE svg PUBLIC "-//W3C//DTD SVG 20010904//EN"
 "http://www.w3.org/TR/2001/REC-SVG-20010904/DTD/svg10.dtd">
<svg version="1.0" xmlns="http://www.w3.org/2000/svg"
 width="1152.000000pt" height="2048.000000pt" viewBox="0 0 1152.000000 2048.000000"
 preserveAspectRatio="xMidYMid meet">

<g transform="translate(0.000000,2048.000000) scale(0.100000,-0.100000)"
fill="#000000" stroke="none">
<path d="M0 17160 l0 -3320 5760 0 5760 0 0 3320 0 3320 -5760 0 -5760 0 0
-3320z"/>
<path d="M7956 11785 c-3 -13 -60 -73 -126 -134 -138 -128 -141 -129 -277 -87
-43 14 -137 43 -209 65 -87 27 -134 47 -138 58 -4 10 5 31 26 57 27 34 21 30
-40 -24 -39 -35 -72 -69 -72 -76 0 -6 -12 -17 -27 -23 -16 -7 -44 -26 -64 -44
-20 -18 -93 -81 -163 -142 -69 -60 -126 -116 -126 -122 0 -7 -15 -19 -32 -27
-18 -8 -47 -27 -64 -42 -17 -16 -93 -85 -168 -153 l-139 -124 5 -279 c3 -153
9 -283 14 -288 5 -5 77 -35 159 -66 83 -31 156 -62 163 -68 11 -11 -9 -23
-105 -66 -65 -29 -145 -66 -177 -82 l-59 -30 7 -246 c6 -236 7 -248 30 -282
13 -19 101 -98 196 -175 95 -77 207 -171 249 -209 131 -120 371 -316 386 -316
8 0 15 -4 15 -9 0 -9 115 -107 317 -269 55 -45 110 -82 121 -82 22 0 450 213
500 249 17 11 40 21 52 21 20 0 450 219 510 260 14 9 36 20 50 23 46 11 475
237 497 262 24 27 26 47 47 350 9 134 9 184 1 197 -6 10 -62 51 -125 93 -62
42 -141 96 -175 120 l-62 45 -7 -62 c-3 -33 -6 -88 -6 -122 -1 -47 -3 -57 -11
-43 -7 12 -9 99 -5 258 4 186 2 239 -8 239 -6 0 -57 -45 -111 -100 -55 -55
-105 -100 -111 -100 -7 0 -15 17 -19 37 -10 53 5 394 19 425 6 15 73 93 150
173 l139 147 -8 -241 c-6 -191 -5 -241 5 -241 17 0 83 68 76 78 -6 10 10 355
20 421 6 43 5 45 -10 26 -8 -11 -16 -15 -16 -9 0 17 27 37 34 25 6 -9 94 77
195 189 42 46 49 60 30 60 -6 0 -3 7 6 16 29 30 15 67 -35 91 -56 26 -517 173
-545 173 -12 0 -26 -5 -33 -12 -9 -9 -17 -6 -35 14 -27 29 -45 36 -327 124
-128 40 -232 67 -257 67 -32 0 -44 4 -48 17 -3 9 -21 21 -39 27 -32 10 -35 9
-40 -12z m-605 -236 c118 -39 220 -76 227 -81 6 -6 12 -18 12 -27 0 -17 -237
-241 -268 -253 -24 -9 -44 -4 -279 74 -253 83 -251 80 -150 175 119 111 208
183 225 183 10 0 115 -32 233 -71z m1499 -46 c49 -9 115 -40 98 -45 -7 -3 -10
-9 -6 -13 4 -4 14 -2 22 4 12 10 29 8 83 -9 37 -12 78 -26 91 -31 13 -5 31 -9
41 -9 9 0 26 -6 36 -14 18 -13 15 -17 -41 -69 -32 -30 -62 -53 -67 -50 -4 2 0
11 8 20 9 9 14 22 11 30 -4 10 -1 13 13 8 16 -5 18 -2 14 15 -3 13 -11 19 -19
16 -8 -3 -14 -4 -14 -2 0 3 -3 11 -6 20 -5 12 0 16 17 17 l24 0 -24 10 c-13 5
-44 10 -67 11 -25 2 -46 8 -48 15 -6 15 -52 17 -61 3 -6 -9 1 -11 45 -14 18
-1 26 -34 11 -49 -7 -7 -16 -6 -28 5 -20 17 -55 16 -62 -3 -2 -8 -6 -8 -11 2
-6 9 -12 10 -22 2 -7 -5 -22 -12 -34 -15 -17 -4 -20 -1 -16 23 3 20 10 29 23
29 10 0 21 5 24 10 4 6 15 8 26 5 11 -4 19 -2 19 4 0 6 -10 11 -22 12 -22 1
-22 1 2 10 19 7 15 8 -17 4 -33 -4 -44 -1 -52 12 -6 10 -11 12 -11 6 0 -7 -8
-13 -17 -14 -12 -1 -10 -4 7 -9 23 -7 23 -8 3 -9 -16 -1 -23 -9 -26 -28 -4
-28 -4 -28 -4 2 -1 47 -2 50 -14 38 -6 -6 -12 -30 -13 -52 -2 -39 -1 -41 28
-43 l31 -1 -33 -4 c-18 -3 -36 -11 -39 -19 -3 -8 -12 -14 -20 -14 -12 0 -14 7
-9 31 5 28 4 31 -14 26 -11 -3 -20 -1 -20 4 0 5 7 9 15 9 8 0 15 3 16 8 0 4 2
15 4 24 2 9 -5 24 -16 34 -10 9 -16 21 -13 26 4 6 10 5 15 -3 7 -11 9 -11 9
-1 0 7 4 11 9 8 5 -3 7 -15 4 -26 -7 -25 22 -28 35 -4 7 12 4 22 -9 35 -29 29
-23 38 19 28 20 -5 53 -12 72 -16z m-1110 13 c0 -3 -4 -8 -10 -11 -5 -3 -10
-1 -10 4 0 6 5 11 10 11 6 0 10 -2 10 -4z m970 -76 c0 -5 -2 -10 -4 -10 -3 0
-8 5 -11 10 -3 6 -1 10 4 10 6 0 11 -4 11 -10z m-45 -30 c3 -5 -1 -10 -9 -10
-9 0 -16 5 -16 10 0 6 4 10 9 10 6 0 13 -4 16 -10z m-655 -83 c198 -66 215
-74 219 -97 2 -21 -18 -45 -125 -147 -103 -98 -135 -123 -157 -123 -16 0 -130
34 -253 76 -232 79 -244 86 -211 125 6 9 64 66 129 127 101 98 121 112 150
112 18 -1 130 -33 248 -73z m625 63 c4 -6 1 -18 -6 -26 -6 -8 -9 -18 -5 -21 4
-4 12 -1 17 7 8 12 9 11 7 -5 -4 -24 -16 -35 -40 -35 -26 0 -23 36 4 54 19 14
20 16 5 16 -10 0 -15 5 -12 10 8 13 22 13 30 0z m465 -28 c0 -1 -10 -7 -22
-12 -18 -7 -19 -9 -5 -9 9 -1 17 -5 17 -11 0 -21 -42 -1 -46 22 -1 8 9 13 27
13 16 0 29 -1 29 -3z m-510 -82 c0 -14 -13 -12 -29 3 -11 10 -12 9 -6 -3 6
-12 5 -12 -5 -3 -19 17 -3 35 21 23 10 -6 19 -15 19 -20z m-215 10 c-3 -5 -11
-10 -16 -10 -6 0 -7 5 -4 10 3 6 11 10 16 10 6 0 7 -4 4 -10z m-1465 -20 c0
-5 -2 -10 -4 -10 -3 0 -8 5 -11 10 -3 6 -1 10 4 10 6 0 11 -4 11 -10z m2174
-6 c23 -23 19 -30 -5 -8 -17 16 -22 16 -29 4 -6 -8 -10 -10 -10 -4 0 26 22 31
44 8z m-2126 -70 c202 -68 242 -85 242 -107 0 -15 -246 -249 -274 -260 -24 -9
-50 -4 -121 23 -27 10 -97 35 -155 55 -166 57 -210 76 -210 91 0 7 26 38 58
67 31 30 92 86 134 125 54 51 85 72 103 72 14 0 114 -30 223 -66z m69 40 c-3
-3 -12 -4 -19 -1 -8 3 -5 6 6 6 11 1 17 -2 13 -5z m2043 -28 c-7 -9 -16 -13
-21 -10 -5 3 -8 1 -7 -4 2 -6 -1 -11 -7 -12 -5 0 -13 -10 -17 -21 -4 -10 -15
-19 -25 -19 -15 0 -15 2 -4 9 12 8 12 12 2 25 -11 13 -11 16 3 16 9 0 25 9 35
19 14 14 21 16 25 8 2 -7 5 -3 5 8 1 14 4 16 13 7 8 -8 8 -15 -2 -26z m-545 4
c13 -6 15 -9 5 -9 -8 0 -22 4 -30 9 -18 12 -2 12 25 0z m-1305 -40 c18 -12 2
-12 -25 0 -13 6 -15 9 -5 9 8 0 22 -4 30 -9z m150 -10 c0 -5 -9 -10 -21 -10
-11 0 -17 5 -14 10 3 6 13 10 21 10 8 0 14 -4 14 -10z m1465 -55 c39 -17 21
-18 -25 0 -19 7 -28 14 -20 14 8 0 29 -6 45 -14z m-1142 -102 c216 -71 213
-70 205 -78 -3 -3 -52 10 -109 30 -57 20 -152 51 -211 71 -100 32 -125 44 -97
44 6 0 102 -30 212 -67z m-170 -13 c58 -21 146 -53 196 -69 104 -35 131 -47
131 -63 0 -12 -235 -254 -261 -269 -11 -5 -35 -3 -65 5 -78 21 -408 138 -421
149 -17 12 -16 32 1 49 220 215 247 238 280 238 18 0 81 -18 139 -40z m-982
-74 c284 -99 402 -145 379 -146 -3 0 -88 30 -190 66 -102 36 -219 77 -260 91
-63 22 -108 43 -89 43 3 0 75 -24 160 -54z m1464 14 c-3 -5 -10 -10 -16 -10
-5 0 -9 5 -9 10 0 6 7 10 16 10 8 0 12 -4 9 -10z m-1362 -136 c245 -84 233
-70 223 -259 -4 -71 -10 -148 -15 -170 -8 -39 -8 -40 -19 -15 -11 24 -12 24
-9 -10 l2 -35 -55 0 c-37 0 -86 11 -150 34 -52 18 -117 40 -143 48 -88 26 -87
23 -87 262 0 215 2 225 40 216 8 -1 104 -34 213 -71z m1566 31 c132 -43 224
-77 191 -72 -40 7 -294 89 -304 99 -17 14 3 9 113 -27z m77 -71 c202 -70 254
-94 254 -115 0 -8 -109 -134 -210 -241 -38 -42 -49 -48 -84 -48 -52 1 -486
151 -500 173 -11 17 6 36 187 225 62 64 86 82 107 82 15 0 126 -34 246 -76z
m204 -25 c13 -7 13 -8 0 -8 -8 0 -26 6 -40 15 l-25 15 25 -7 c14 -3 32 -10 40
-15z m-1350 -40 c67 -23 119 -43 117 -45 -4 -4 -237 73 -245 81 -10 10 9 4
128 -36z m-20 -70 c30 -12 124 -46 209 -75 86 -30 165 -64 179 -76 l24 -23 -6
-195 c-3 -107 -7 -201 -8 -207 -2 -18 -34 -26 -55 -14 -10 6 -42 20 -70 32
-29 12 -53 25 -53 30 0 5 -4 9 -10 9 -15 0 -147 115 -225 198 -17 17 -41 32
-53 32 -22 0 -23 1 -20 148 3 133 5 147 20 146 10 -1 15 2 12 7 -7 12 -7 12
56 -12z m253 -10 c48 -18 86 -33 84 -35 -4 -4 -177 53 -185 61 -11 11 16 4
101 -26z m1266 -56 c0 -25 -1 -25 -8 -8 -5 11 -7 23 -4 28 8 14 13 7 12 -20z
m-32 -165 c-5 -112 -9 -145 -22 -154 -8 -6 -48 -21 -88 -33 -39 -12 -81 -26
-92 -31 -11 -5 -32 -11 -46 -14 -26 -6 -26 -6 -18 40 5 25 8 48 7 52 -1 4 27
36 61 72 35 36 93 98 129 137 37 40 69 73 71 73 2 0 1 -64 -2 -142z m-781 61
c230 -79 235 -81 231 -86 -5 -4 -352 113 -377 127 -29 17 -2 10 146 -41z m-72
-69 c5 2 32 -5 56 -14 3 -1 20 -6 38 -10 18 -4 30 -12 26 -17 -3 -5 -1 -9 5
-9 5 0 18 -3 28 -6 15 -5 15 -4 3 5 -9 7 -10 11 -3 11 6 0 14 -4 18 -10 3 -5
50 -23 104 -40 60 -19 111 -42 134 -61 l37 -30 -1 -162 c0 -89 -4 -171 -8
-182 -5 -11 -5 -27 0 -36 6 -11 4 -21 -6 -29 -11 -10 -32 -6 -102 18 -161 55
-193 69 -185 77 4 4 1 5 -5 1 -14 -7 -143 35 -180 60 -23 14 -23 18 -23 225 0
208 0 210 23 218 13 5 25 5 28 -1 3 -5 9 -9 13 -8z m391 -46 c24 -11 25 -13 5
-8 -14 4 -38 13 -55 20 -24 11 -25 13 -5 8 14 -4 39 -13 55 -20z m762 4 c-3
-8 -6 -5 -6 6 -1 11 2 17 5 13 3 -3 4 -12 1 -19z m-2193 -110 c-2 -13 -8 -74
-15 -136 -6 -62 -16 -115 -20 -118 -5 -3 -9 -1 -9 4 0 20 20 219 26 250 6 36
23 36 18 0z m-255 -300 c17 -16 52 -44 78 -64 27 -20 61 -50 78 -66 16 -15 35
-26 42 -24 10 4 13 -37 13 -198 0 -199 0 -204 -20 -199 -11 3 -20 12 -20 19 0
8 -6 14 -13 14 -17 0 -106 79 -89 80 7 0 10 5 6 11 -4 8 -9 7 -15 -2 -6 -10
-13 -9 -31 6 -12 11 -28 25 -34 30 -7 6 -23 18 -37 28 -36 26 -45 79 -47 257
-1 85 -1 159 -1 163 1 11 49 -19 90 -55z m627 -39 c115 -6 216 -15 225 -20 25
-13 29 -57 22 -251 -5 -142 -9 -183 -22 -195 -13 -14 -46 -15 -260 -8 -238 7
-287 13 -303 38 -4 7 -8 105 -8 219 0 236 -3 227 86 228 28 0 145 -5 260 -11z
m1851 -86 c-3 -10 -5 -2 -5 17 0 19 2 27 5 18 2 -10 2 -26 0 -35z m202 -37
c-10 -9 -109 -56 -109 -51 0 6 91 54 104 55 5 0 7 -2 5 -4z m-196 -86 c8 0 8
-3 -1 -12 -8 -8 -12 -49 -13 -112 0 -56 -5 -110 -10 -121 -6 -14 -8 5 -4 59 3
43 6 120 7 170 1 50 3 74 5 54 2 -21 9 -38 16 -38z m61 15 c-10 -8 -23 -15
-28 -15 -6 0 -1 7 10 15 10 8 23 15 28 15 6 0 1 -7 -10 -15z m-177 -57 c-3 -8
-6 -5 -6 6 -1 11 2 17 5 13 3 -3 4 -12 1 -19z m-1320 -105 c-3 -10 -5 -4 -5
12 0 17 2 24 5 18 2 -7 2 -21 0 -30z m1297 -139 c3 -8 2 -12 -4 -9 -6 3 -10
10 -10 16 0 14 7 11 14 -7z m-136 -74 l74 0 -4 -117 c-3 -79 -9 -126 -19 -141
-8 -13 -89 -61 -202 -118 -186 -95 -217 -104 -231 -68 -9 23 14 374 25 396 6
11 25 28 42 39 29 18 43 20 136 15 57 -3 138 -6 179 -6z m-663 -111 c-152 -75
-225 -108 -225 -103 0 7 301 154 314 153 6 0 -34 -23 -89 -50z m164 -3 c19
-23 0 -386 -22 -419 -18 -28 -381 -217 -416 -217 -25 0 -24 -16 -22 215 2 162
5 194 20 215 11 16 88 60 211 122 107 53 200 97 206 97 6 1 17 -5 23 -13z"/>
<path d="M9128 11373 c7 -3 16 -2 19 1 4 3 -2 6 -13 5 -11 0 -14 -3 -6 -6z"/>
<path d="M6754 10345 c-8 -19 10 -35 39 -35 12 0 17 7 16 28 -2 23 -2 24 -6 5
-2 -13 -9 -23 -14 -23 -6 0 -8 4 -5 9 3 5 -1 14 -9 21 -12 10 -16 9 -21 -5z"/>
<path d="M8156 9812 c-3 -5 1 -9 9 -9 8 0 12 4 9 9 -3 4 -7 8 -9 8 -2 0 -6 -4
-9 -8z"/>
<path d="M6580 9456 c0 -4 7 -14 15 -22 8 -9 15 -11 15 -6 0 5 -7 15 -15 22
-8 7 -15 9 -15 6z"/>
<path d="M3455 8316 c-39 -17 -61 -44 -70 -83 -7 -36 4 -43 26 -16 40 47 165
58 239 21 38 -19 48 -31 65 -75 l20 -53 73 0 73 0 -3 33 -3 32 -71 3 -72 3 -6
32 c-14 76 -78 117 -178 117 -35 -1 -76 -7 -93 -14z"/>
<path d="M5510 8270 l0 -41 63 3 62 3 3 38 3 37 -65 0 -66 0 0 -40z"/>
<path d="M6832 8273 l3 -38 63 -3 62 -3 0 40 0 41 -66 0 -65 0 3 -37z"/>
<path d="M3230 8127 c0 -44 33 -118 67 -147 47 -41 73 -52 235 -96 146 -39
180 -54 201 -85 18 -26 29 -11 21 29 -13 64 -45 80 -312 152 -97 27 -153 64
-182 120 -21 41 -30 49 -30 27z"/>
<path d="M4650 8101 c-53 -11 -80 -29 -92 -62 -9 -28 -13 -29 -68 -29 -63 0
-64 -1 -74 -42 -5 -24 -3 -27 21 -30 16 -2 47 -1 70 0 35 3 43 9 53 32 16 39
65 60 138 60 44 0 66 -5 85 -20 33 -26 37 -25 37 9 0 61 -81 99 -170 82z"/>
<path d="M5966 8095 c-44 -15 -57 -31 -54 -60 2 -14 9 -19 23 -16 57 10 133
11 158 2 15 -6 36 -24 45 -41 16 -29 20 -30 85 -30 59 0 67 2 67 19 0 45 -10
51 -75 51 -59 0 -63 2 -69 25 -12 47 -111 75 -180 50z"/>
<path d="M7365 8100 c-76 -17 -124 -81 -131 -179 l-4 -56 13 40 c30 89 77 125
164 125 62 0 107 -27 124 -74 l13 -36 68 0 c60 0 68 2 68 19 0 44 -10 51 -70
51 -57 0 -59 1 -77 37 -28 57 -100 89 -168 73z"/>
<path d="M7966 8095 c-44 -15 -57 -31 -54 -60 2 -14 9 -19 23 -16 57 10 133
11 158 2 15 -6 36 -24 45 -41 16 -29 20 -30 85 -30 59 0 67 2 67 19 0 45 -10
51 -75 51 -59 0 -63 2 -69 25 -12 47 -111 75 -180 50z"/>
<path d="M3960 8060 l0 -41 53 3 52 3 0 35 0 35 -52 3 -53 3 0 -41z"/>
<path d="M4200 8060 l0 -41 63 3 62 3 3 38 3 37 -65 0 -66 0 0 -40z"/>
<path d="M5030 8061 l0 -41 56 0 55 0 -3 38 -3 37 -52 3 -53 3 0 -40z"/>
<path d="M5277 8094 c-4 -4 -7 -23 -7 -41 l0 -34 63 3 62 3 0 35 0 35 -55 3
c-31 2 -59 0 -63 -4z"/>
<path d="M6360 8060 l0 -41 53 3 52 3 0 35 0 35 -52 3 -53 3 0 -41z"/>
<path d="M6600 8060 l0 -41 63 3 62 3 3 38 3 37 -65 0 -66 0 0 -40z"/>
<path d="M5775 7943 c20 -106 51 -126 297 -188 37 -9 72 -23 79 -31 17 -21 29
-17 29 10 0 52 -37 76 -164 108 -143 35 -191 58 -218 104 -26 44 -32 43 -23
-3z"/>
<path d="M7770 7958 c1 -37 36 -104 66 -125 28 -20 96 -42 236 -78 37 -9 72
-23 79 -31 17 -21 29 -17 29 10 0 52 -37 76 -164 108 -143 35 -191 58 -218
104 -23 40 -28 42 -28 12z"/>
<path d="M4765 7870 c-16 -5 -63 -14 -103 -20 -92 -15 -132 -45 -132 -98 l0
-35 24 22 c15 14 49 27 102 37 149 28 154 30 154 69 0 19 -3 35 -7 34 -5 0
-21 -5 -38 -9z"/>
<path d="M7096 7775 c13 -114 50 -188 117 -233 60 -41 111 -56 194 -56 98 1
173 38 220 108 36 53 61 122 48 134 -4 4 -10 2 -12 -5 -11 -30 -62 -95 -93
-118 -46 -34 -90 -45 -180 -45 -59 0 -86 5 -125 25 -85 41 -121 82 -152 173
l-23 67 6 -50z"/>
<path d="M3206 7745 c9 -71 39 -129 94 -178 57 -51 124 -77 222 -84 206 -15
358 77 378 230 4 26 5 47 4 47 -2 0 -12 -19 -22 -42 -25 -57 -86 -110 -158
-139 -84 -32 -243 -32 -328 1 -77 29 -133 81 -168 155 l-29 60 7 -50z"/>
<path d="M4391 7668 c-3 -107 84 -182 209 -181 78 0 135 15 183 48 l36 24 13
-27 c17 -36 76 -55 132 -45 38 8 41 11 44 43 l3 35 -56 -3 c-77 -5 -102 3
-121 39 -14 29 -17 30 -34 14 -58 -53 -225 -73 -305 -36 -48 22 -83 58 -95 97
-8 29 -8 29 -9 -8z"/>
<path d="M5760 7680 c0 -30 27 -91 53 -118 110 -118 415 -95 481 36 19 38 29
102 16 102 -5 0 -10 -6 -10 -13 0 -35 -94 -104 -164 -121 -61 -15 -181 -8
-239 14 -55 21 -117 77 -117 107 0 7 -4 13 -10 13 -5 0 -10 -9 -10 -20z"/>
<path d="M7760 7680 c0 -30 27 -91 53 -118 110 -118 415 -95 481 36 19 38 29
102 16 102 -5 0 -10 -6 -10 -13 0 -35 -94 -104 -164 -121 -61 -15 -181 -8
-239 14 -55 21 -117 77 -117 107 0 7 -4 13 -10 13 -5 0 -10 -9 -10 -20z"/>
<path d="M4066 7635 c4 -27 10 -60 15 -72 18 -48 106 -77 202 -66 46 6 47 7
47 39 l0 34 -80 0 c-106 0 -145 16 -171 72 l-20 43 7 -50z"/>
<path d="M5136 7635 c9 -64 17 -86 41 -107 26 -24 110 -39 172 -31 50 6 51 6
51 39 l0 34 -80 0 c-106 0 -145 16 -171 72 l-20 43 7 -50z"/>
<path d="M6466 7635 c4 -27 10 -60 15 -72 18 -48 106 -77 202 -66 46 6 47 7
47 39 l0 34 -80 0 c-106 0 -145 16 -171 72 l-20 43 7 -50z"/>
<path d="M5510 7535 l0 -35 63 0 c35 0 66 2 69 5 2 3 3 18 0 35 -4 30 -5 30
-68 30 l-64 0 0 -35z"/>
<path d="M6830 7535 l0 -35 65 0 65 0 0 35 0 35 -65 0 -65 0 0 -35z"/>
<path d="M0 3320 l0 -3320 5760 0 5760 0 0 3320 0 3320 -5760 0 -5760 0 0
-3320z"/>
</g>
</svg>
